<svg xmlns="http://www.w3.org/2000/svg" width="600" height="100" viewBox="110 0 48 48">
  <defs>
    <svg id="svg1" viewBox="0 0 48 48">
      <circle cx="24" cy="24" r="20" fill="#2196f3"></circle><path fill="#fff" d="M29,31H14c-1.657,0-3-1.343-3-3V17h15c1.657,0,3,1.343,3,3V31z"></path><polygon fill="#fff" points="37,31 31,27 31,21 37,17"></polygon>
    </svg>
    <svg id="svg2" viewBox="0 0 48 48">
      <rect width="16" height="16" x="12" y="16" fill="#fff" transform="rotate(-90 20 24)"></rect><polygon fill="#1e88e5" points="3,17 3,31 8,32 13,31 13,17 8,16"></polygon><path fill="#4caf50" d="M37,24v14c0,1.657-1.343,3-3,3H13l-1-5l1-5h14v-7l5-1L37,24z"></path><path fill="#fbc02d" d="M37,10v14H27v-7H13l-1-5l1-5h21C35.657,7,37,8.343,37,10z"></path><path fill="#1565c0" d="M13,31v10H6c-1.657,0-3-1.343-3-3v-7H13z"></path><polygon fill="#e53935" points="13,7 13,17 3,17"></polygon><polygon fill="#2e7d32" points="38,24 37,32.45 27,24 37,15.55"></polygon><path fill="#4caf50" d="M46,10.11v27.78c0,0.84-0.98,1.31-1.63,0.78L37,32.45v-16.9l7.37-6.22C45.02,8.8,46,9.27,46,10.11z"></path>
    </svg>
    <svg id="svg3" viewBox="0 0 48 48">
      <path fill="#FF3D00" d="M43.2,33.9c-0.4,2.1-2.1,3.7-4.2,4c-3.3,0.5-8.8,1.1-15,1.1c-6.1,0-11.6-0.6-15-1.1c-2.1-0.3-3.8-1.9-4.2-4C4.4,31.6,4,28.2,4,24c0-4.2,0.4-7.6,0.8-9.9c0.4-2.1,2.1-3.7,4.2-4C12.3,9.6,17.8,9,24,9c6.2,0,11.6,0.6,15,1.1c2.1,0.3,3.8,1.9,4.2,4c0.4,2.3,0.9,5.7,0.9,9.9C44,28.2,43.6,31.6,43.2,33.9z"></path><path fill="#FFF" d="M20 31L20 17 32 24z"></path>
    </svg>
    <svg id="svg4" viewBox="0 0 48 48">
      <path fill="#5c6bc0" d="M41.5 13A3.5 3.5 0 1 0 41.5 20 3.5 3.5 0 1 0 41.5 13zM4 40l23 4V4L4 8V40z"></path><path fill="#fff" d="M21 16.27L21 19 17.01 19.18 16.99 31.04 14.01 30.95 14.01 19.29 10 19.45 10 16.94z"></path><path fill="#5c6bc0" d="M36 14c0 2.21-1.79 4-4 4-1.2 0-2.27-.53-3-1.36v-5.28c.73-.83 1.8-1.36 3-1.36C34.21 10 36 11.79 36 14zM38 23v11c0 0 1.567 0 3.5 0 1.762 0 3.205-1.306 3.45-3H45v-8H38zM29 20v17c0 0 1.567 0 3.5 0 1.762 0 3.205-1.306 3.45-3H36V20H29z"></path>
    </svg>
    <svg id="svg5" viewBox="0 0 48 48">
      <path fill="#03a9f4" d="M24 4A20 20 0 1 0 24 44A20 20 0 1 0 24 4Z"></path><path fill="#03a9f4" d="M33.5 22A11.5 11.5 0 1 0 33.5 45 11.5 11.5 0 1 0 33.5 22zM14.5 3A11.5 11.5 0 1 0 14.5 26 11.5 11.5 0 1 0 14.5 3z"></path><path fill="#fff" d="M24.602,36C18,36,15,32.699,15,30.199C15,28.898,15.898,28,17.199,28c2.801,0,2.102,4.102,7.402,4.102c2.699,0,4.199-1.5,4.199-3c0-0.902-0.402-1.902-2.199-2.402l-5.902-1.5C16,24,15.102,21.398,15.102,18.898c0-5.098,4.699-6.898,9.098-6.898C28.301,12,33,14.199,33,17.199c0,1.301-1,2.102-2.301,2.102c-2.398,0-2-3.402-6.801-3.402c-2.398,0-3.797,1.102-3.797,2.703c0,1.598,1.898,2.098,3.598,2.5l4.402,1C32.898,23.199,34,26,34,28.699C33.898,32.898,30.898,36,24.602,36z"></path>
  </svg>
  </defs>

  <use href="#svg1" x="0" y="0"/>
  <use href="#svg2" x="54" y="0"/>
  <use href="#svg3" x="108" y="0"/>
  <use href="#svg4" x="162" y="0"/>
  <use href="#svg5" x="216" y="0"/>
</svg>